<svg xmlns="http://www.w3.org/2000/svg" xmlns:xlink="http://www.w3.org/1999/xlink" viewBox="0 0 720 504"><defs><style>.cls-1,.cls-38,.cls-39{fill:transparent;}.cls-2{fill:url(#linear-gradient);}.cls-3{fill:#fe845a;}.cls-37,.cls-4,.cls-48,.cls-66{fill:none;}.cls-4{stroke:#231f20;stroke-width:1.23px;}.cls-4,.cls-48,.cls-66{stroke-linecap:round;}.cls-37,.cls-4{stroke-miterlimit:10;}.cls-5{fill:url(#linear-gradient-2);}.cls-6{fill:#0f4ea8;}.cls-7{fill:url(#linear-gradient-3);}.cls-8{fill:url(#linear-gradient-4);}.cls-9{fill:url(#linear-gradient-5);}.cls-10{fill:url(#linear-gradient-6);}.cls-11{fill:#373075;}.cls-12{fill:#232059;}.cls-13{fill:url(#linear-gradient-7);}.cls-14{fill:#231f20;}.cls-15{fill:url(#linear-gradient-8);}.cls-16{fill:url(#linear-gradient-9);}.cls-17{fill:url(#linear-gradient-10);}.cls-18{fill:url(#linear-gradient-11);}.cls-19{fill:url(#linear-gradient-12);}.cls-20,.cls-21{fill:#201851;}.cls-21{opacity:0.2;}.cls-22,.cls-23{fill:#3d86fa;}.cls-23{opacity:0.7;}.cls-24{fill:#1a2e35;}.cls-25{fill:#403882;}.cls-26{fill:#e1e7ef;}.cls-27{fill:#e1e1e1;}.cls-28{fill:#d9d9f5;}.cls-29{fill:#433af5;}.cls-30{fill:#fe5886;}.cls-31{fill:#2b2699;}.cls-32{fill:#9f3854;}.cls-33{fill:#fda181;}.cls-34{fill:#1150c0;}.cls-35{fill:#094082;}.cls-36{fill:url(#linear-gradient-13);}.cls-37{stroke:#fff;stroke-width:0.66px;opacity:0.8;}.cls-38{opacity:0.4;}.cls-39{opacity:0.1;isolation:isolate;}.cls-40{fill:#f59059;}.cls-41{fill:#f55662;}.cls-42{fill:#ff885a;}.cls-43{fill:#423981;}.cls-44{fill:url(#linear-gradient-14);}.cls-45{fill:url(#linear-gradient-15);}.cls-46{fill:#edf1f7;}.cls-47{fill:url(#linear-gradient-16);}.cls-48,.cls-66{stroke:#342d3a;stroke-linejoin:round;}.cls-48{stroke-width:0.72px;}.cls-49{fill:#2b5899;}.cls-50{fill:#3065c4;}.cls-51{fill:#f1317b;}.cls-52{fill:#f67dbe;}.cls-53{fill:#f662b6;}.cls-54{fill:#ef4bb0;}.cls-55{fill:#e83497;}.cls-56{fill:#1a50c7;}.cls-57{fill:#7c9fc1;}.cls-58{fill:#5884ba;}.cls-59{fill:#4778bf;}.cls-60{fill:#ffc200;}.cls-61{fill:#ffe8bb;}.cls-62{fill:#ffe19f;}.cls-63{fill:#ffd05c;}.cls-64{fill:#ffc82e;}.cls-65{fill:#d7d8db;}.cls-66{stroke-width:0.65px;}</style><linearGradient id="linear-gradient" x1="116.15" y1="32.35" x2="183.08" y2="196.05" gradientUnits="userSpaceOnUse"><stop offset="0.05" stop-color="#fbd15b"/><stop offset="1" stop-color="#f9a45a"/></linearGradient><linearGradient id="linear-gradient-2" x1="639.92" y1="307.75" x2="553.09" y2="105.15" gradientUnits="userSpaceOnUse"><stop offset="0" stop-color="#1252c4"/><stop offset="1" stop-color="#3f87fe"/></linearGradient><linearGradient id="linear-gradient-3" x1="488.68" y1="440.83" x2="488.68" y2="333.44" gradientUnits="userSpaceOnUse"><stop offset="0" stop-color="#232059"/><stop offset="1" stop-color="#ad69da"/></linearGradient><linearGradient id="linear-gradient-4" x1="503.96" y1="440.83" x2="503.96" y2="333.44" xlink:href="#linear-gradient-3"/><linearGradient id="linear-gradient-5" x1="512.86" y1="389.5" x2="501.39" y2="429.51" gradientUnits="userSpaceOnUse"><stop offset="0" stop-color="#fff5b7"/><stop offset="1" stop-color="#d17e2c"/></linearGradient><linearGradient id="linear-gradient-6" x1="524.98" y1="392.98" x2="513.51" y2="432.98" xlink:href="#linear-gradient-5"/><linearGradient id="linear-gradient-7" x1="113.27" y1="476.59" x2="125.42" y2="433.35" gradientTransform="matrix(-1, 0, 0, 1, 252, 0)" gradientUnits="userSpaceOnUse"><stop offset="0" stop-color="#f8a034"/><stop offset="1" stop-color="#ffc546"/></linearGradient><linearGradient id="linear-gradient-8" x1="110.84" y1="478.18" x2="95.74" y2="446.91" gradientTransform="matrix(-1, 0, 0, 1, 252, 0)" gradientUnits="userSpaceOnUse"><stop offset="0" stop-color="#fcb72c"/><stop offset="1" stop-color="#ffcf44"/></linearGradient><linearGradient id="linear-gradient-9" x1="130.05" y1="480.14" x2="135.43" y2="460.07" xlink:href="#linear-gradient-8"/><linearGradient id="linear-gradient-10" x1="-313.98" y1="476.59" x2="-301.84" y2="433.35" xlink:href="#linear-gradient-7"/><linearGradient id="linear-gradient-11" x1="-316.42" y1="478.18" x2="-331.52" y2="446.91" xlink:href="#linear-gradient-8"/><linearGradient id="linear-gradient-12" x1="-297.2" y1="480.14" x2="-291.82" y2="460.07" xlink:href="#linear-gradient-8"/><linearGradient id="linear-gradient-13" x1="416.18" y1="92.01" x2="523.19" y2="278.34" xlink:href="#linear-gradient"/><linearGradient id="linear-gradient-14" x1="471.29" y1="149.67" x2="477.52" y2="161.43" xlink:href="#linear-gradient"/><linearGradient id="linear-gradient-15" x1="469.16" y1="161.42" x2="477" y2="172.03" xlink:href="#linear-gradient-3"/><linearGradient id="linear-gradient-16" x1="340.49" y1="66.11" x2="316.27" y2="115.23" xlink:href="#linear-gradient"/></defs><g id="Layer_2" data-name="Layer 2"><g id="Layer_1-2" data-name="Layer 1"><rect class="cls-1" width="720" height="504"/><g id="TREES_AND_PLANTS" data-name="TREES AND PLANTS"><ellipse class="cls-2" cx="158.83" cy="136.75" rx="46.5" ry="96.9"/><path class="cls-3" d="M183.92,55.14c7.29,17.12,11.73,39.65,11.73,64.34,0,53.51-20.82,96.9-46.5,96.9-9.24,0-17.85-5.62-25.09-15.3,8.52,20,20.94,32.57,34.77,32.57,25.68,0,46.5-43.38,46.5-96.9C205.33,102.48,196.8,72.37,183.92,55.14Z"/><g id="TREE"><line class="cls-4" x1="159.47" y1="78.82" x2="159.47" y2="474.25"/><line class="cls-4" x1="159.47" y1="122.6" x2="177.59" y2="100.49"/><line class="cls-4" x1="159.47" y1="168.09" x2="177.59" y2="145.98"/><line class="cls-4" x1="159.47" y1="148.2" x2="141.35" y2="126.08"/><line class="cls-4" x1="159.47" y1="188.78" x2="141.35" y2="166.67"/><line class="cls-4" x1="159.47" y1="215.27" x2="177.59" y2="193.16"/></g><ellipse class="cls-5" cx="566.63" cy="136.75" rx="46.5" ry="96.9"/><path class="cls-6" d="M591.72,55.14c7.29,17.12,11.73,39.65,11.73,64.34,0,53.51-20.82,96.9-46.5,96.9-9.24,0-17.85-5.62-25.09-15.3,8.52,20,20.94,32.57,34.77,32.57,25.69,0,46.5-43.38,46.5-96.9C613.13,102.48,604.6,72.37,591.72,55.14Z"/><g id="TREE-2" data-name="TREE"><line class="cls-4" x1="567.27" y1="78.82" x2="567.27" y2="474.25"/><line class="cls-4" x1="567.27" y1="122.6" x2="585.39" y2="100.49"/><line class="cls-4" x1="567.27" y1="168.09" x2="585.39" y2="145.98"/><line class="cls-4" x1="567.27" y1="148.2" x2="549.15" y2="126.08"/><line class="cls-4" x1="567.27" y1="188.78" x2="549.15" y2="166.67"/><line class="cls-4" x1="567.27" y1="215.27" x2="585.39" y2="193.16"/></g><g id="plant"><path class="cls-7" d="M491.94,339.64c-.68,3.14.31,6.86-.25,10.08-.7,4-3.31,5.18-5.08,7.72-2.09,3-3.05,8.65-2.28,13.46a69.08,69.08,0,0,0,2.28,8.21,18.81,18.81,0,0,1,.62,8.91c-1,4.28-6.3,7.61-6.3,25.75,0,16.56,12.07,23,15.49,27.06V333.44l-1.55,1.47A8.75,8.75,0,0,0,491.94,339.64Z"/><path class="cls-8" d="M506,379.11a69.09,69.09,0,0,0,2.29-8.21c.76-4.81-.19-10.45-2.29-13.46-1.77-2.54-4.38-3.7-5.08-7.72-.56-3.22.43-6.94-.24-10.08a8.82,8.82,0,0,0-2.94-4.73l-1.55-1.47V440.83c3.42-4.06,15.49-10.5,15.49-27.06,0-18.14-5.31-21.47-6.3-25.75A18.81,18.81,0,0,1,506,379.11Z"/><path class="cls-9" d="M512.13,399.48c-.92,1.18-.51,3-1.34,4.2-1,1.55-3.32,1.49-5.07,2.18a5.5,5.5,0,0,0-3.4,5.19,20.34,20.34,0,0,0,1,3.95,4.45,4.45,0,0,1-.48,3.89c-1.3,1.59-6.07,1.87-8.11,9.52-1.85,7,7.42,12.25,9.8,14.69l12-45.28-1.44.29A4.74,4.74,0,0,0,512.13,399.48Z"/><path class="cls-10" d="M518.46,405.64c-.1-1.48,1.14-2.84.93-4.3a4.66,4.66,0,0,0-1.91-2.62l-1.11-.94-12,45.27c3.29-1,14-1.15,15.86-8.13,2-7.65-2-10.18-2.33-12.19a4.45,4.45,0,0,1,1.52-3.63,20.81,20.81,0,0,0,2.81-3,5.4,5.4,0,0,0-.39-6.15C520.62,408.52,518.59,407.48,518.46,405.64Z"/><path class="cls-11" d="M502.88,447.57c-3.6-5.29-26.42-9.45-26.42-9.45S484,446,484,451.33a22.91,22.91,0,0,1-1.29,6A12,12,0,0,0,494.33,473H495c1.47-3,2.89-6.65,2.89-9.12C497.93,458.74,506.47,452.86,502.88,447.57Z"/><path class="cls-12" d="M525.85,457.35a22.91,22.91,0,0,1-1.29-6c0-5.31,7.52-13.21,7.52-13.21H476.46s22.82,4.16,26.42,9.45-4.95,11.17-4.95,16.27c0,2.47-1.42,6.07-2.89,9.12h19.17A12,12,0,0,0,525.85,457.35Z"/></g><g id="plant_3" data-name="plant 3"><path class="cls-13" d="M145.42,466.87s-1.26-43.54-16.57-46.75-17.5,27.15,0,57.15Z"/><path class="cls-14" d="M137.5,472.09a.26.26,0,0,1-.25-.19c-7.3-29.37-10.44-40.18-10.47-40.28a.24.24,0,0,1,.17-.31.25.25,0,0,1,.32.17c0,.11,3.18,10.92,10.48,40.3a.26.26,0,0,1-.19.31Z"/><path class="cls-15" d="M150.72,477.27s23.33-22.15,14.58-32.86-30.62,7.86-36.45,32.86Z"/><path class="cls-14" d="M141.61,474.31l-.11,0a.26.26,0,0,1-.13-.34c5.79-13.11,17.08-23.55,17.19-23.66a.27.27,0,0,1,.37,0,.25.25,0,0,1,0,.36c-.11.1-11.33,10.47-17.08,23.48A.25.25,0,0,1,141.61,474.31Z"/><path class="cls-16" d="M131,477.27s-6-25.18-18-23,0,22.86,0,22.86Z"/><path class="cls-14" d="M119.19,474.13a.28.28,0,0,1-.26-.19l-4-14.64a.26.26,0,0,1,.51-.13l4,14.64a.27.27,0,0,1-.19.31Z"/></g><g id="plant_3-2" data-name="plant 3"><path class="cls-17" d="M572.67,466.87s-1.26-43.54-16.57-46.75-17.5,27.15,0,57.15Z"/><path class="cls-14" d="M564.76,472.09a.27.27,0,0,1-.26-.19c-7.3-29.37-10.44-40.18-10.47-40.28a.24.24,0,0,1,.18-.31.25.25,0,0,1,.32.17c0,.11,3.17,10.92,10.48,40.3a.27.27,0,0,1-.19.31Z"/><path class="cls-18" d="M578,477.27s23.33-22.15,14.58-32.86-30.62,7.86-36.46,32.86Z"/><path class="cls-14" d="M568.86,474.31l-.1,0a.27.27,0,0,1-.14-.34c5.79-13.11,17.09-23.55,17.2-23.66a.27.27,0,0,1,.37,0,.25.25,0,0,1,0,.36c-.11.1-11.33,10.47-17.07,23.48A.26.26,0,0,1,568.86,474.31Z"/><path class="cls-19" d="M558.23,477.27s-6-25.18-18-23,0,22.86,0,22.86Z"/><path class="cls-14" d="M546.44,474.13a.27.27,0,0,1-.25-.19l-4-14.64a.25.25,0,0,1,.18-.31.26.26,0,0,1,.32.18l4,14.64a.25.25,0,0,1-.18.31Z"/></g></g><g id="TABLE"><polygon class="cls-20" points="405.57 170.75 412.68 170.75 399.59 309.93 392.83 309.93 405.57 170.75"/><polygon class="cls-21" points="405.57 170.75 412.68 170.75 399.59 309.93 392.83 309.93 405.57 170.75"/><polygon class="cls-20" points="412.8 305.18 403.55 237.82 404.85 237.65 414.11 305.01 412.8 305.18"/><polygon class="cls-22" points="396.2 302.45 176.97 302.45 188.96 170.75 408.2 170.75 396.2 302.45"/><polygon class="cls-23" points="396.2 302.45 176.97 302.45 188.96 170.75 408.2 170.75 396.2 302.45"/><polygon class="cls-12" points="225 315.46 234.08 315.46 248.91 480.28 242.35 480.28 225 315.46"/><polygon class="cls-12" points="443.06 314.33 452.13 314.33 466.96 480.28 460.4 480.28 443.06 314.33"/><polygon class="cls-12" points="401.89 314.53 400.84 340.44 449.43 340.46 449.43 314.33 401.89 314.53"/><rect class="cls-11" x="178.82" y="314.53" width="218.96" height="26.13"/><polygon class="cls-24" points="184.76 314.33 175.69 314.33 175.42 480.28 181.97 480.28 184.76 314.33"/><polygon class="cls-24" points="402.82 314.33 393.74 314.33 393.47 480.28 400.02 480.28 402.82 314.33"/><polygon class="cls-25" points="175.69 314.33 175.42 480.28 181.97 480.28 184.76 314.33 175.69 314.33"/><polygon class="cls-25" points="402.82 314.33 393.74 314.33 393.47 480.28 400.02 480.28 402.82 314.33"/><path class="cls-24" d="M168.14,308.06h0c0-3.52,1.54-6.37,3.42-6.38h284.7c1.89,0,3.41,2.86,3.42,6.38h0c0,3.52-1.53,6.37-3.42,6.38H171.56C169.68,314.43,168.15,311.58,168.14,308.06Z"/><path class="cls-26" d="M168.14,308.06h0c0-3.52,1.54-6.37,3.42-6.38h284.7c1.89,0,3.41,2.86,3.42,6.38h0c0,3.52-1.53,6.37-3.42,6.38H171.56C169.68,314.43,168.15,311.58,168.14,308.06Z"/><path class="cls-20" d="M386.19,308.06h0c0-3.52,1.54-6.37,3.42-6.38h66.65c1.89,0,3.41,2.86,3.42,6.38h0c0,3.52-1.53,6.37-3.42,6.38H389.61C387.73,314.43,386.2,311.58,386.19,308.06Z"/><path class="cls-1" d="M324.34,185.35l-8.82,96.89a3.62,3.62,0,0,0,3.69,3.87h60.24a3.65,3.65,0,0,0,3.69-3.25L392,186a3.62,3.62,0,0,0-3.69-3.87H328A3.65,3.65,0,0,0,324.34,185.35Z"/><path class="cls-27" d="M337.58,280.89H321.42l1-10.92h16.17Zm-15.45-.63H337l.88-9.66H323Z"/><path class="cls-27" d="M357.25,280.89H341.09l1-10.92h16.17Zm-15.45-.63h14.85l.88-9.66H342.69Z"/><path class="cls-27" d="M376.93,280.89H360.76l1-10.92h16.17Zm-15.45-.63h14.84l.88-9.66H362.36Z"/><rect class="cls-27" x="324.12" y="254.46" width="54.85" height="0.63"/><path class="cls-27" d="M361.52,239.74H325.23l.36-4h36.29ZM326,239.11h35l.26-2.75h-35Z"/><path class="cls-27" d="M378.34,265.41h-15l.36-4H378.7ZM364,264.78h13.72l.25-2.7H364.25Z"/><path class="cls-27" d="M379.75,249.89H374l.5-5.49h5.72Zm-5-.63h4.4l.38-4.23h-4.4Z"/><path class="cls-27" d="M354.88,249.89h-5.72l.5-5.49h5.72Zm-5-.63h4.4l.39-4.23h-4.4Z"/><path class="cls-27" d="M330,249.89h-5.72l.5-5.49h5.72Zm-5-.63h4.4l.38-4.23h-4.4Z"/><path class="cls-27" d="M346.64,192.29H329.55l.39-4.24H347Zm-16.37-.63H346l.27-3H330.54Z"/><path class="cls-27" d="M328.23,266.52h-1.44a3.7,3.7,0,0,1-2.72-1.13,3.43,3.43,0,0,1-.93-2.71l.13-1.38a4.33,4.33,0,0,1,4.28-3.79H329a3.7,3.7,0,0,1,2.72,1.13,3.43,3.43,0,0,1,.93,2.71l-.13,1.38A4.33,4.33,0,0,1,328.23,266.52Zm-.68-8.37a3.67,3.67,0,0,0-3.63,3.2l-.12,1.38a2.81,2.81,0,0,0,.76,2.24,3,3,0,0,0,2.23.91h1.44a3.66,3.66,0,0,0,3.63-3.2l.12-1.38a2.81,2.81,0,0,0-.76-2.24,3,3,0,0,0-2.23-.91Z"/><path class="cls-27" d="M381.27,232.36h-55.4l0-.34,3.34-36.61h55.39l0,.35Zm-54.68-.63h54.08l3.25-35.68H329.84Z"/><polygon class="cls-27" points="337.08 280.83 322.52 270.54 322.91 270.03 337.48 280.32 337.08 280.83"/><polygon class="cls-27" points="321.95 280.84 321.6 280.31 338.04 270.02 338.4 270.55 321.95 280.84"/><polygon class="cls-27" points="356.76 280.83 342.19 270.54 342.58 270.03 357.15 280.32 356.76 280.83"/><polygon class="cls-27" points="341.63 280.84 341.27 280.31 357.71 270.02 358.07 270.55 341.63 280.84"/><polygon class="cls-27" points="376.43 280.83 361.86 270.54 362.25 270.03 376.82 280.32 376.43 280.83"/><polygon class="cls-27" points="361.3 280.84 360.94 280.31 377.38 270.02 377.74 270.55 361.3 280.84"/><path class="cls-28" d="M362.29,210.05c0,.11.14.16.21.24l.78.7a.31.31,0,0,1,.13.29v4s0,.09,0,.13a.2.2,0,0,0,0,.13v3.49l-2.21-1.79c-.25-.2-.48-.41-.75-.6a.57.57,0,0,0-.11-.11l-1.17-1-1.15-.94c-.07,0-.12-.14-.22-.14s0-.05-.06-.07l-1.56-1.29-4.85-4s-.06-.07-.11-.06a.11.11,0,0,0-.06-.09l-.85-.69c-.28-.24-.57-.47-.86-.7l-.85-.7-.69-.56-1-.85-.85-.7-.87-.71-.7-.57-.86-.7-.7-.57-.72-.59a.53.53,0,0,1-.13-.13H353a5.33,5.33,0,0,0,.49.46c.4.36.8.74,1.2,1.11s.58.51.86.78l.73.65.07.06,2.78,2.53L362.2,210S362.24,210.06,362.29,210.05Z"/><path class="cls-29" d="M348.49,223.83l-1.36,1.34-4.1,4.1-.09.09a.22.22,0,0,1,0-.13V216.85a.22.22,0,0,1,.08-.19l5.27-4.82,0,0s.06.05.1.07l.86.51,3.17,1.86,2.71,1.58c.28.17.57.31.83.5l-.05.06-1.31,1.3L352.33,220c-.05.05-.1.11-.16.16l-2.39,2.39Z"/><path class="cls-30" d="M363.41,219.06v-3.49a.2.2,0,0,1,0-.13l1.8-.73,4.86-2a.12.12,0,0,1,.12,0h0c-.12.31-.28.6-.42.9-1.26,2.71-2.53,5.41-3.8,8.12a.26.26,0,0,1-.17.15l-9.4,3.35-1.78.64a.28.28,0,0,1-.18,0l-4.41-1.49-.05,0,1.3-1.3,1.1-1.1,1.9-1.89,1-1,.42-.44h0l0,0,.06,0,2.4-1s0,0,.06.06l1.49.87,3.18,1.86.49.28Z"/><path class="cls-29" d="M362.29,210.05c-.05,0-.06,0-.09-.05l-3.11-2.83-2.78-2.53-.07-.06h11.37a.3.3,0,0,1,.13,0,.33.33,0,0,1-.09.11L362.37,210Z"/><path class="cls-31" d="M356,216.34c-.26-.19-.55-.33-.83-.5l-2.71-1.58-3.17-1.86-.86-.51s-.08,0-.1-.07l1.08-1,1.64-1.49.2-.19s.08,0,.11.06l4.85,4,1.56,1.29s.07,0,.06.07l-1.29,1.29Z"/><path class="cls-32" d="M355.7,218.64l-.42.44-1,1-1.9,1.89-1.1,1.1-1.3,1.3c-.29-.07-.56-.18-.85-.28s-.45-.14-.66-.23l1.29-1.3,2.39-2.39c.06,0,.11-.11.16-.16a.24.24,0,0,0,.14,0l3.1-1.28C355.62,218.66,355.65,218.63,355.7,218.64Z"/><path class="cls-30" d="M370.21,212.69h0Z"/><path class="cls-32" d="M358.19,217.6l2.16-.88.1-.05c.27.19.5.4.75.6l2.21,1.79v1.61l-.49-.28-3.18-1.86-1.49-.87S358.2,217.63,358.19,217.6Z"/><path class="cls-32" d="M355.7,218.64s0,0,0,0Z"/><path class="cls-1" d="M191.43,184.59l-7,76.65A2.48,2.48,0,0,0,187,263.9H305.82a2.52,2.52,0,0,0,2.54-2.24l7-76.65a2.49,2.49,0,0,0-2.54-2.66H194A2.5,2.5,0,0,0,191.43,184.59Z"/><rect class="cls-27" x="199.19" y="248.98" width="66.57" height="0.63"/><path class="cls-27" d="M267.18,237.33H200l0-.35,4.05-44.4h67.15l0,.34Zm-66.43-.63h65.83l4-43.49H204.71Z"/><path class="cls-27" d="M202.77,258.51H201a2.66,2.66,0,0,1-1.94-.8,2.47,2.47,0,0,1-.67-1.95l.16-1.74a3.08,3.08,0,0,1,3.05-2.69h1.81a2.63,2.63,0,0,1,1.94.81,2.43,2.43,0,0,1,.67,1.94l-.16,1.74A3.07,3.07,0,0,1,202.77,258.51ZM201.56,252a2.41,2.41,0,0,0-2.39,2.12l-.16,1.74a1.84,1.84,0,0,0,.49,1.46,2,2,0,0,0,1.46.6h1.81a2.42,2.42,0,0,0,2.4-2.12l.15-1.74a1.84,1.84,0,0,0-.49-1.46,2,2,0,0,0-1.46-.6Z"/><path class="cls-27" d="M233.21,245.28h-33.9l.31-3.46h33.91ZM200,244.64h32.59l.2-2.18H200.23Z"/><path class="cls-27" d="M265.38,256.65h-13.5l.31-3.45h13.5ZM252.59,256h12.19l.2-2.18H252.79Z"/><path class="cls-27" d="M266.46,245.28h-3.6l.32-3.46h3.59Zm-2.88-.64h2.27l.21-2.18h-2.28Z"/><path class="cls-27" d="M261.48,245.28h-3.59l.31-3.46h3.6Zm-2.88-.64h2.28l.2-2.18H258.8Z"/><path class="cls-27" d="M256.51,245.28h-3.6l.32-3.46h3.59Zm-2.88-.64h2.27l.2-2.18h-2.27Z"/><path class="cls-27" d="M271.56,189.24H221l.28-3.07h50.53Zm-49.81-.64H271l.16-1.79h-49.2Z"/><path class="cls-27" d="M217.76,189.43H204.25l.32-3.45h13.5ZM205,188.8h12.18l.2-2.19H205.17Z"/><path class="cls-27" d="M303.29,207.1H279.56L280.75,194h23.73Zm-23-.63h22.4l1.08-11.83H281.35Z"/><path class="cls-27" d="M301.05,231.69H277.32l1.19-13.1h23.73Zm-23-.63h22.4l1.08-11.84h-22.4Z"/><path class="cls-27" d="M298.81,256.27H275.08l1.19-13.09H300Zm-23-.63h22.41l1.07-11.83h-22.4Z"/><polygon class="cls-27" points="280.07 207.06 279.76 206.51 303.97 194.04 304.28 194.6 280.07 207.06"/><polygon class="cls-27" points="302.82 207.06 280.89 194.59 281.22 194.05 303.15 206.51 302.82 207.06"/><polygon class="cls-27" points="277.83 231.65 277.52 231.09 301.73 218.63 302.04 219.19 277.83 231.65"/><polygon class="cls-27" points="300.58 231.64 278.65 219.18 278.98 218.63 300.91 231.1 300.58 231.64"/><path class="cls-27" d="M275.06,256.51,276.29,243l11.26,6.39,11.94-6.15.31.56-11.59,6,10.46,5.95-.33.54-10.81-6.14Zm1.8-12.49-1,11.38,11.05-5.69Z"/><polygon class="cls-27" points="200.57 237.28 200.21 236.75 270.72 192.63 271.08 193.16 200.57 237.28"/><polygon class="cls-27" points="266.69 237.26 204.21 193.15 204.6 192.64 267.08 236.76 266.69 237.26"/></g><g id="MAN"><g id="SHOES"><path class="cls-25" d="M201.22,443.47l-6.66,13.15s-11.75,13.63-10.9,14.76,18,7.83,22.65,8.28,21.52.39,22-.73-1.32-6.65-5.61-7-13.34-5.13-12.74-8.34L218.72,450Z"/><path class="cls-33" d="M200.47,461.69c2,1,.59-.17,3-.15s6.47,2.06,6.47,2.06L218.72,450l-17.5-6.51-6.66,13.15S198.42,460.7,200.47,461.69Z"/><path class="cls-26" d="M183.66,471.38c.86,1.12,18,7.83,22.65,8.28s21.52.39,22-.73-1.32-6.65-5.61-7a11.6,11.6,0,0,1-2.38-.49h0c-.73,1-1.44,6.24-1.44,6.24s-8.19.62-12.86,0c-4.21-.56-18.76-6.94-21.58-8.18C183.81,470.47,183.5,471.16,183.66,471.38Z"/><path class="cls-25" d="M315.56,478.71a9.73,9.73,0,0,0-8-6.54c-7.26-.9-16-5.82-16-5.82s-6.07,1.06-6.2,2.2-10-.72-11.31-2.2l-2,14.16a1.71,1.71,0,0,0,1.81,1.8c7.06.19,30.42.62,40.29-1.41A1.69,1.69,0,0,0,315.56,478.71Z"/><path class="cls-33" d="M285.32,468.55c.13-1.14,6.2-2.2,6.2-2.2l2.4-17.28-18.35.3-1.33,15.36-.23,1.62C275.29,467.83,285.18,469.68,285.32,468.55Z"/><path class="cls-26" d="M273.84,482.31c7.06.19,30.42.62,40.29-1.41a1.69,1.69,0,0,0,1.43-2.19,9.73,9.73,0,0,0-8-6.54c-.58-.07-1.19-.18-1.79-.3h0s-3.34,2.11-3.08,8.16c0,0-18.89.85-30.59,0l-.06.47A1.71,1.71,0,0,0,273.84,482.31Z"/></g><g id="HEAD"><path class="cls-33" d="M298.74,146.59s-6.48,28.72-14.06,32.19c-3,1.37-9.38-2.45-9.38-2.45L273,182.75l-19.83-3.54,8-15.37S275.14,129.12,298.74,146.59Z"/><path class="cls-25" d="M286.64,156.38s-1.27-3.95-4.67-2.43-3.46,9.58.28,9.42c0,0-4,5-7.32,5s-13.78-4.56-13.78-4.56-.23-21.48,1-25.38a11.5,11.5,0,0,1,8.3-7.36c1.16-.19,1.73,1.73,1.73,1.73s3.58-5.08,8.77-4.76,21.33,13.21,25.94,13.1,1.44,8.61-2.94,9-9.8-1.4-9.8-1.4-1.79,4.92-2.65,5.57-4.21,5-5.08,4.87S286.64,156.38,286.64,156.38Z"/><path class="cls-12" d="M277.35,159.74c-1.75,3.91-18-2.73-15.14-21.33a.08.08,0,0,1,0,.05c-1.27,3.9-1,25.38-1,25.38s10.44,4.62,13.78,4.56,7.32-5,7.32-5c-3.55.15-3.68-7.09-.78-9.13h0S279.2,155.63,277.35,159.74Z"/></g><g id="PANTS"><path class="cls-34" d="M275,288.61s28.37,67.9,28.37,79.12-5.31,65.94-9.92,85.82c0,0-16.95,1-18.45,0l-.61-77.75-15.23-26.9s1.54,21.26,0,27.56S231,436.29,218.72,451.91c0,0-14.14-2.1-18.6-6,0,0,30.13-65.21,29-76.89s-17.52-49.34-20.75-54.85-5.84-20.73-4.38-27.3S263.31,263.48,275,288.61Z"/><path class="cls-35" d="M231.87,313.41a57.42,57.42,0,0,0-11.3-1.48s13.6,2.46,15.73,11.27,15.71,40.27,15.44,53.26A101.6,101.6,0,0,1,248,400.88c6-12,10.57-21.93,11.17-24.42,1.54-6.3,0-27.56,0-27.56s-17-25.95-17.37-26.34S232.44,314.69,231.87,313.41Z"/></g><g id="BODY"><polygon class="cls-20" points="361.7 217.63 340.8 201.16 339.84 202.13 360.74 218.59 362.85 219.41 361.7 217.63"/><path class="cls-33" d="M333.34,213.07s6.34-3.57,8.6-4.08,8.5-.83,10.23-.32,7.15,3.71,7.19,4.4-.85.5-1.62.36a17.87,17.87,0,0,1-2.69-1.05s.56,1.36-.29,1.81c0,0,.1,1.42-.53,1.71a2.36,2.36,0,0,1-1.1,2.13c-1.21.67-4.57.67-6.28.72a9.17,9.17,0,0,0-7,2.78C337,224.28,333.34,213.07,333.34,213.07Z"/><path class="cls-25" d="M333.34,213.07c-2.08.54-27.91,16.57-27.91,16.57s-10.15-32.27-13.72-40.18-28.26-11-31.83-11.47c-3.13-.42-20.75-1.3-32.17,1.95S182.4,222.06,178,229.09s26.56,54.14,26.56,54.14L204,288a232.31,232.31,0,0,0,33,4.47,146,146,0,0,0,30.9-2.31l1-6.66,3.26,7L275,290s-4.61-20.58-4.27-23S280,231.58,280,231.58a96,96,0,0,0,7.26,10.62c3.23,3.79,8.42,9.2,15.57,8.87s36.44-28.15,37-29.23S335.41,212.53,333.34,213.07ZM206.88,253.85s-5-17.43-6.69-18.78L211.57,227Z"/><path class="cls-12" d="M280,231.58,273,216.43s3,19,0,27.5S270.72,267,270.72,267Z"/><path class="cls-12" d="M200.19,235.07,211.57,227s5.77-24.22,7.15-29.42c0,0-46.07,38.24-31.28,19.67A134.45,134.45,0,0,0,178,229.09c-4.38,7,26.56,54.14,26.56,54.14s1.56-25.13,2.3-29.38C206.88,253.85,201.89,236.42,200.19,235.07Z"/></g></g><g id="TOOLS"><path class="cls-36" d="M504.59,289.88H429a11.71,11.71,0,0,1-11.85-13l14.39-164.52a14.46,14.46,0,0,1,14.12-13h75.61a11.71,11.71,0,0,1,11.84,13L518.71,276.9A14.45,14.45,0,0,1,504.59,289.88Z"/><path class="cls-37" d="M473.82,277.75a6.88,6.88,0,0,1-6.72,6.18,5.57,5.57,0,0,1-5.63-6.18,6.88,6.88,0,0,1,6.71-6.18A5.57,5.57,0,0,1,473.82,277.75Z"/><path class="cls-37" d="M494.46,114.1H470a2.08,2.08,0,0,1-2.1-2.3l.05-.56a2.58,2.58,0,0,1,2.51-2.3h24.48a2.08,2.08,0,0,1,2.1,2.3l0,.56A2.58,2.58,0,0,1,494.46,114.1Z"/><path class="cls-38" d="M506.59,262.47H431.78a6.1,6.1,0,0,1-6.08-6.65L436.91,127.7a6.1,6.1,0,0,1,6.08-5.58H517.8a6.11,6.11,0,0,1,6.09,6.64L512.68,256.89A6.11,6.11,0,0,1,506.59,262.47Z"/><polygon class="cls-39" points="489.58 99.99 447.42 289.88 472.76 289.88 514.5 99.99 489.58 99.99"/><polygon class="cls-39" points="469.87 99.99 427.71 289.88 440.48 289.88 482.22 99.99 469.87 99.99"/><polygon class="cls-40" points="452.79 254.88 431.26 254.88 432.56 240.01 454.09 240.01 452.79 254.88"/><polygon class="cls-40" points="480.11 254.88 458.58 254.88 459.88 240.01 481.41 240.01 480.11 254.88"/><polygon class="cls-40" points="507.42 254.88 485.89 254.88 487.19 240.01 508.72 240.01 507.42 254.88"/><polygon class="cls-22" points="510.74 216.93 434.58 216.93 434.47 218.24 510.63 218.24 510.74 216.93"/><polygon points="510.74 216.93 434.58 216.93 434.47 218.24 510.63 218.24 510.74 216.93"/><path class="cls-22" d="M507.33,230.68H492.2a2.41,2.41,0,0,1-2.41-2.62h0a2.41,2.41,0,0,1,2.41-2.2h15.13a2.41,2.41,0,0,1,2.4,2.62h0A2.41,2.41,0,0,1,507.33,230.68Z"/><path class="cls-22" d="M439.23,234.1h0a5.45,5.45,0,0,1-5.52-6h0a6.73,6.73,0,0,1,6.57-6.05h0a5.46,5.46,0,0,1,5.53,6.05h0A6.74,6.74,0,0,1,439.23,234.1Z"/><polygon class="cls-1" points="513.13 188.39 437.13 188.39 441.73 135.89 517.73 135.89 513.13 188.39"/><polygon class="cls-41" points="452.85 150.05 445.83 150.05 446.44 143.02 453.47 143.02 452.85 150.05"/><polygon class="cls-42" points="451.81 160.88 444.79 160.88 445.41 153.86 452.43 153.86 451.81 160.88"/><polygon class="cls-22" points="450.63 171.72 443.6 171.72 444.22 164.7 451.24 164.7 450.63 171.72"/><polygon class="cls-43" points="449.63 183.06 442.6 183.06 443.22 176.04 450.24 176.04 449.63 183.06"/><polygon class="cls-30" points="466.17 150.05 459.14 150.05 459.75 143.02 466.78 143.02 466.17 150.05"/><polygon class="cls-29" points="465.13 160.88 458.1 160.88 458.72 153.86 465.74 153.86 465.13 160.88"/><polygon class="cls-28" points="463.94 171.72 456.92 171.72 457.53 164.7 464.55 164.7 463.94 171.72"/><polygon class="cls-23" points="462.94 183.06 455.92 183.06 456.53 176.04 463.55 176.04 462.94 183.06"/><polygon class="cls-20" points="479.61 150.05 472.58 150.05 473.2 143.02 480.22 143.02 479.61 150.05"/><polygon class="cls-44" points="478.57 160.88 471.55 160.88 472.16 153.86 479.19 153.86 478.57 160.88"/><polygon class="cls-45" points="477.38 171.72 470.36 171.72 470.97 164.7 478 164.7 477.38 171.72"/><polygon points="476.38 183.06 469.36 183.06 469.97 176.04 477 176.04 476.38 183.06"/><circle class="cls-22" cx="337.47" cy="102.14" r="28.51"/><path class="cls-46" d="M346.2,77.25l-35.35,4.62,3.23,24.76L349.44,102Zm-29.14,26.66-1.14-8.73a8.3,8.3,0,0,1,5-1.42c4.47.3,7.83,4.83,12.3,5h.18c2.42,0,4.68-1.23,6.62-2.68,1.61-1.2,3.13-2.57,4.84-3.6l1,7.66Z"/><path class="cls-3" d="M345.86,100.15l-28.8,3.76-1.14-8.73a8.3,8.3,0,0,1,5-1.42c4.47.3,7.83,4.83,12.3,5h.18c2.42,0,4.68-1.23,6.62-2.68,1.61-1.2,3.13-2.57,4.84-3.6Z"/><path class="cls-47" d="M344.86,92.49c-1.71,1-3.23,2.4-4.84,3.6-1.94,1.45-4.2,2.71-6.62,2.68h-.18c-4.47-.17-7.83-4.7-12.3-5a8.3,8.3,0,0,0-5,1.42l-1.49-11.45L343.22,80Z"/><path class="cls-48" d="M315.92,95.18a8.3,8.3,0,0,1,5-1.42c4.47.3,7.83,4.83,12.3,5h.18c2.42,0,4.68-1.23,6.62-2.68,1.61-1.2,3.13-2.57,4.84-3.6"/><circle class="cls-3" cx="332.17" cy="89.37" r="4.02"/><circle class="cls-48" cx="332.17" cy="89.37" r="4.02"/><path class="cls-46" d="M363.74,97.84l-35-6.94-4.86,24.5,35,6.94ZM327.6,113.77l1.72-8.63a8.29,8.29,0,0,1,5.19.25c4.13,1.71,5.87,7.07,10.05,8.67a.85.85,0,0,0,.17.06c2.28.81,4.83.34,7.13-.42,1.91-.62,3.79-1.42,5.73-1.86l-1.5,7.58Z"/><path class="cls-49" d="M356.09,119.42l-28.49-5.65,1.72-8.63a8.29,8.29,0,0,1,5.19.25c4.13,1.71,5.87,7.07,10.05,8.67a.85.85,0,0,0,.17.06c2.28.81,4.83.34,7.13-.42,1.91-.62,3.79-1.42,5.73-1.86Z"/><path class="cls-50" d="M357.59,111.84c-1.94.44-3.82,1.24-5.73,1.86-2.3.76-4.85,1.23-7.13.42a.85.85,0,0,1-.17-.06c-4.18-1.6-5.92-7-10.05-8.67a8.29,8.29,0,0,0-5.19-.25l2.24-11.33,28.49,5.65Z"/><path class="cls-48" d="M329.32,105.14a8.29,8.29,0,0,1,5.19.25c4.13,1.71,5.87,7.07,10.05,8.67a.85.85,0,0,0,.17.06c2.28.81,4.83.34,7.13-.42,1.91-.62,3.79-1.42,5.73-1.86"/><circle class="cls-49" cx="346.57" cy="104.83" r="4.02"/><circle class="cls-48" cx="346.57" cy="104.83" r="4.02"/><circle class="cls-22" cx="394.46" cy="137.21" r="26.38" transform="translate(-14.22 51.16) rotate(-7.29)"/><polyline class="cls-46" points="408.52 127.71 395.89 157.04 386.28 152.9 401.05 118.6 410.67 122.74 408.52 127.71"/><rect class="cls-51" x="389.77" y="148.68" width="6.05" height="4.64" transform="translate(693.8 445.08) rotate(-156.7)"/><rect class="cls-52" x="398.91" y="127.45" width="6.05" height="4.64" transform="translate(719.74 407.97) rotate(-156.7)"/><rect class="cls-53" x="396.63" y="132.76" width="6.05" height="4.64" transform="translate(713.26 417.25) rotate(-156.7)"/><rect class="cls-54" x="394.34" y="138.07" width="6.05" height="4.64" transform="translate(706.77 426.53) rotate(-156.7)"/><rect class="cls-55" x="392.06" y="143.37" width="6.05" height="4.64" transform="translate(700.29 435.8) rotate(-156.7)"/><rect class="cls-46" x="389.03" y="117.33" width="10.47" height="37.35" transform="translate(655.65 461) rotate(-147.84)"/><rect class="cls-56" x="383.6" y="145.84" width="6.05" height="4.64" transform="translate(635.07 479.38) rotate(-147.84)"/><rect class="cls-57" x="395.9" y="126.27" width="6.05" height="4.64" transform="translate(668.2 449.79) rotate(-147.84)"/><rect class="cls-58" x="392.83" y="131.16" width="6.05" height="4.64" transform="translate(659.92 457.19) rotate(-147.84)"/><rect class="cls-59" x="389.75" y="136.05" width="6.05" height="4.64" transform="translate(651.63 464.59) rotate(-147.84)"/><rect class="cls-50" x="386.68" y="140.95" width="6.05" height="4.64" transform="matrix(-0.85, -0.53, 0.53, -0.85, 643.35, 471.98)"/><rect class="cls-46" x="385.11" y="112.44" width="10.47" height="37.35" transform="translate(548.35 511.37) rotate(-131.13)"/><rect class="cls-60" x="376.51" y="138.23" width="6.05" height="4.64" transform="translate(523.31 518.88) rotate(-131.13)"/><rect class="cls-61" x="393.92" y="123.03" width="6.05" height="4.64" transform="translate(563.62 506.79) rotate(-131.13)"/><rect class="cls-62" x="389.56" y="126.83" width="6.05" height="4.64" transform="translate(553.55 509.81) rotate(-131.13)"/><rect class="cls-63" x="385.21" y="130.63" width="6.05" height="4.64" transform="translate(543.47 512.83) rotate(-131.13)"/><rect class="cls-64" x="380.86" y="134.43" width="6.05" height="4.64" transform="translate(533.39 515.85) rotate(-131.13)"/><path class="cls-65" d="M403.11,122.19a1.31,1.31,0,1,1-.68-1.72A1.3,1.3,0,0,1,403.11,122.19Z"/><path class="cls-66" d="M401.73,121.11a7.75,7.75,0,1,1,6.94,6.93"/></g></g></g></svg>