<svg xmlns="http://www.w3.org/2000/svg" xmlns:xlink="http://www.w3.org/1999/xlink" viewBox="0 0 720 504"><defs><style>.cls-1{isolation:isolate;}.cls-2{fill:transparent;}.cls-3{fill:#c7ccd1;}.cls-4{fill:url(#linear-gradient);}.cls-5{fill:#fe845a;}.cls-12,.cls-32,.cls-35,.cls-6{fill:none;stroke-miterlimit:10;}.cls-6{stroke:#231f20;stroke-width:1.2px;}.cls-12,.cls-35,.cls-6{stroke-linecap:round;}.cls-7{fill:#201851;}.cls-8{fill:url(#linear-gradient-2);}.cls-9{fill:#e1e7ef;}.cls-10{fill:#3d86fa;}.cls-11{opacity:0.53;}.cls-11,.cls-39{mix-blend-mode:multiply;}.cls-12{stroke:#172a32;stroke-width:1.07px;stroke-dasharray:2.14 2.14 0;}.cls-13{fill:#f55662;}.cls-14{fill:#403882;}.cls-15{fill:#232059;}.cls-16{fill:#fda181;}.cls-17{fill:url(#linear-gradient-3);}.cls-18{fill:url(#linear-gradient-4);}.cls-19{fill:url(#linear-gradient-5);}.cls-20{fill:url(#linear-gradient-6);}.cls-21{fill:url(#linear-gradient-7);}.cls-22{fill:#ce7961;}.cls-23{fill:#1150c0;}.cls-24{fill:#094082;}.cls-25{fill:url(#linear-gradient-8);}.cls-26{fill:#f59059;}.cls-27{fill:url(#linear-gradient-9);}.cls-28{fill:url(#linear-gradient-10);}.cls-29{fill:#fffcff;}.cls-30{fill:url(#linear-gradient-11);}.cls-31{fill:url(#linear-gradient-12);}.cls-32{stroke:#fff;stroke-width:0.77px;}.cls-33{fill:url(#linear-gradient-13);}.cls-34{fill:#ff885a;}.cls-35{stroke:#000;stroke-width:2.14px;}.cls-36{fill:#f69e80;}.cls-37{fill:#242259;}.cls-38{fill:#403981;}.cls-39{opacity:0.3;}.cls-40{fill:url(#linear-gradient-14);}.cls-41{fill:url(#linear-gradient-15);}.cls-42{fill:#231f20;}.cls-43{fill:url(#linear-gradient-16);}.cls-44{fill:url(#linear-gradient-17);}.cls-45{fill:url(#linear-gradient-18);}.cls-46{fill:url(#linear-gradient-19);}.cls-47{fill:url(#linear-gradient-20);}</style><linearGradient id="linear-gradient" x1="591.2" y1="23.3" x2="657.83" y2="186.25" gradientUnits="userSpaceOnUse"><stop offset="0.05" stop-color="#fbd15b"/><stop offset="1" stop-color="#f9a45a"/></linearGradient><linearGradient id="linear-gradient-2" x1="102.68" y1="192.31" x2="586.11" y2="192.31" gradientUnits="userSpaceOnUse"><stop offset="0" stop-color="#f8a034"/><stop offset="1" stop-color="#ffc546"/></linearGradient><linearGradient id="linear-gradient-3" x1="222.69" y1="115.08" x2="254.04" y2="104.92" gradientUnits="userSpaceOnUse"><stop offset="0" stop-color="#f69a5e"/><stop offset="0.29" stop-color="#faac60"/><stop offset="0.71" stop-color="#fec062"/><stop offset="1" stop-color="#ffc763"/></linearGradient><linearGradient id="linear-gradient-4" x1="57.22" y1="314.45" x2="90.01" y2="314.45" xlink:href="#linear-gradient-2"/><linearGradient id="linear-gradient-5" x1="57.16" y1="343.91" x2="90.08" y2="343.91" xlink:href="#linear-gradient-2"/><linearGradient id="linear-gradient-6" x1="105.25" y1="341.24" x2="65.47" y2="319.41" gradientUnits="userSpaceOnUse"><stop offset="0" stop-color="#1251c2"/><stop offset="1" stop-color="#2e78ed"/></linearGradient><linearGradient id="linear-gradient-7" x1="103.2" y1="344.98" x2="63.42" y2="323.14" xlink:href="#linear-gradient-6"/><linearGradient id="linear-gradient-8" x1="112.87" y1="158.37" x2="160.55" y2="132.81" xlink:href="#linear-gradient-3"/><linearGradient id="linear-gradient-9" x1="53.48" y1="409.73" x2="95.5" y2="409.73" gradientUnits="userSpaceOnUse"><stop offset="0.06" stop-color="#fd8200"/><stop offset="1" stop-color="#ff5700"/></linearGradient><linearGradient id="linear-gradient-10" x1="45.06" y1="446.57" x2="103.92" y2="446.57" xlink:href="#linear-gradient-9"/><linearGradient id="linear-gradient-11" x1="217.76" y1="360.54" x2="353.24" y2="360.54" xlink:href="#linear-gradient-9"/><linearGradient id="linear-gradient-12" x1="217.76" y1="399.83" x2="353.24" y2="399.83" xlink:href="#linear-gradient-9"/><linearGradient id="linear-gradient-13" x1="345.35" y1="203.2" x2="539.54" y2="203.2" gradientUnits="userSpaceOnUse"><stop offset="0" stop-color="#ffbf61"/><stop offset="1" stop-color="#ffcf62"/></linearGradient><linearGradient id="linear-gradient-14" x1="511.65" y1="147.86" x2="559.33" y2="122.3" gradientTransform="matrix(-0.95, 0.04, 0.04, 0.96, 1058.02, -15.48)" xlink:href="#linear-gradient-3"/><linearGradient id="linear-gradient-15" x1="-374.89" y1="465.77" x2="-362.79" y2="422.72" gradientTransform="matrix(-1, 0, 0, 1, 252, 0)" xlink:href="#linear-gradient-2"/><linearGradient id="linear-gradient-16" x1="-376.99" y1="467.22" x2="-391.94" y2="436.26" gradientTransform="matrix(-1, 0, 0, 1, 252, 0)" gradientUnits="userSpaceOnUse"><stop offset="0" stop-color="#fcb72c"/><stop offset="1" stop-color="#ffcf44"/></linearGradient><linearGradient id="linear-gradient-17" x1="-358.37" y1="469.25" x2="-353.03" y2="449.32" xlink:href="#linear-gradient-16"/><linearGradient id="linear-gradient-18" x1="-197.52" y1="444.24" x2="-189.07" y2="414.16" gradientTransform="matrix(-1, 0, 0, 1, 252, 0)" xlink:href="#linear-gradient-2"/><linearGradient id="linear-gradient-19" x1="-198.99" y1="445.25" x2="-209.43" y2="423.63" xlink:href="#linear-gradient-16"/><linearGradient id="linear-gradient-20" x1="-185.98" y1="446.67" x2="-182.25" y2="432.75" xlink:href="#linear-gradient-16"/></defs><g class="cls-1"><g id="Layer_2" data-name="Layer 2"><g id="Layer_1-2" data-name="Layer 1"><rect class="cls-2" width="720" height="504"/><g id="SHADOW"><ellipse class="cls-3" cx="158.38" cy="482.16" rx="46.7" ry="6.32"/><ellipse class="cls-3" cx="285.46" cy="466.44" rx="61.21" ry="3.16"/><ellipse class="cls-3" cx="545.97" cy="480.25" rx="52.93" ry="6.32"/></g><g id="TREE"><ellipse class="cls-4" cx="633.69" cy="127.23" rx="45.38" ry="96.53"/><path class="cls-5" d="M658.17,45.93c7.12,17,11.45,39.49,11.45,64.09,0,53.31-20.32,96.53-45.38,96.53-9,0-17.42-5.59-24.48-15.24,8.31,19.9,20.43,32.44,33.93,32.44,25.07,0,45.39-43.21,45.39-96.52C679.08,93.09,670.75,63.1,658.17,45.93Z"/><g id="TREE-2" data-name="TREE"><line class="cls-6" x1="634.31" y1="69.52" x2="634.31" y2="463.43"/><line class="cls-6" x1="634.31" y1="113.13" x2="652" y2="91.1"/><line class="cls-6" x1="634.31" y1="158.45" x2="652" y2="136.42"/><line class="cls-6" x1="634.31" y1="138.63" x2="616.63" y2="116.6"/><line class="cls-6" x1="634.31" y1="179.06" x2="616.63" y2="157.03"/><line class="cls-6" x1="634.31" y1="205.45" x2="652" y2="183.42"/></g></g><g id="MONITOR"><rect class="cls-7" x="92.37" y="53.41" width="501.69" height="302.88" rx="7.49"/><rect class="cls-8" x="102.68" y="61.4" width="483.43" height="261.82" rx="10.48"/><path class="cls-9" d="M586.11,72.74V312.9a10.3,10.3,0,0,1-10.31,10.31H102.68V72.74Z"/><polygon class="cls-10" points="318.14 76.88 318.14 206.01 263 191.77 270.69 162 242.38 154.69 239.7 165.07 207.19 156.69 212.01 138.02 198.49 134.54 195.72 145.31 140.32 131.02 142.48 122.65 114.7 115.48 114.7 76.88 318.14 76.88"/><rect class="cls-7" x="290.88" y="354.62" width="107.04" height="72.98"/><rect class="cls-11" x="290.88" y="354.62" width="107.04" height="16.18"/><path class="cls-7" d="M260.87,427.6H427.93a15.49,15.49,0,0,1,15.49,15.49v1.07a0,0,0,0,1,0,0h-198a0,0,0,0,1,0,0v-1.07A15.49,15.49,0,0,1,260.87,427.6Z"/><path class="cls-7" d="M319.08,309.7H113.76V75.94H319.08Zm-203.44-2.24H317.2V78.18H115.64Z"/><rect class="cls-10" x="336.66" y="81.62" width="230.13" height="228.08" rx="13.41"/><rect class="cls-2" x="336.66" y="81.62" width="230.13" height="18.52"/><rect class="cls-12" x="357.06" y="225.88" width="189.63" height="74.41" rx="4.63"/><rect class="cls-2" x="357.06" y="130.44" width="189.63" height="74.41" rx="4.79"/><path class="cls-13" d="M435.75,181.6l-25.54-11.1v-6.15l25.54-11.06v7.24l-17.81,6.81,17.81,7.07Z"/><path class="cls-13" d="M448.53,186.48,457.76,148h5.36l-9.33,38.53Z"/><path class="cls-13" d="M475.89,181.63v-7.19l17.85-7-17.85-6.94v-7.14l25.57,11.06v6.1Z"/></g><g id="LADY"><g id="LEGS"><path class="cls-14" d="M163.84,284s15,60.79,15.89,74.05-3,98.72-3,98.72-9.08,3.75-14.7,1.73c0,0-10.24-55.49-10.24-68.75s2.17-22,0-29.4-15-30.12-15-30.12,3.75,42.52,3.32,53.18-4.47,73.79-4.47,73.79-9.94,2.74-13.83-.28c0,0-8.94-44.54-7.93-60.54s4-18.59,2-27.24-8.8-39.2-8.65-41.5-9.87-15.28-2.85-40.5S163.84,284,163.84,284Z"/><path class="cls-15" d="M136.78,330.25s-6.55-7.85-7.35-11.24a17.31,17.31,0,0,0-1.8-5,217.77,217.77,0,0,0,4.58,22c2.63,9.22,7.4,31.79,7.4,31.79S137.43,334.07,136.78,330.25Z"/><path class="cls-14" d="M162,458.52l1.19,10-.54,13.65a1.36,1.36,0,0,0,1.37,1.42c5.55,0,25.57-.17,31.53-1.36a1.8,1.8,0,0,0,1.44-1.9c-.14-2.17-.65-6.19-2.42-7-2.45-1.15-8.54-2.81-11.93-4.58a28.79,28.79,0,0,1-6.16-4.54l.22-7.42Z"/><path class="cls-16" d="M176.49,464.21s-1.48,2.13-1.15,3-7,2.67-12.14,1.37l-1.19-10,14.7-1.73Z"/><path class="cls-9" d="M164,483.61c5.55,0,25.57-.17,31.53-1.36a1.81,1.81,0,0,0,1.45-1.9c-.15-2.17-.66-6.19-2.43-7-.87-.41-2.19-.88-3.69-1.4a22,22,0,0,1,.79,7.9s-20.39,2.32-29,1.95v.41A1.36,1.36,0,0,0,164,483.61Z"/><path class="cls-14" d="M121.8,456.94l1,7.85s-3.42,15.71-2.41,16.58,24.14,1.22,25.15,0-.15-7.43-1.81-8.58-8.5-8-8.64-9a63,63,0,0,1,.5-6.56Z"/><path class="cls-16" d="M122.84,464.79s2.45-2,4.83-1.9,7.46.89,7.46.89l.5-6.56-13.83-.28Z"/><path class="cls-9" d="M120.43,481.37c1,.86,24.14,1.22,25.15,0s-.15-7.43-1.81-8.58c-.24-.17-.61-.48-1-.86h0c.93,2.27-.88,8.07-.88,8.07-4.58.27-17.5-.68-21.53-1C120.2,480.29,120.21,481.18,120.43,481.37Z"/></g><g id="BODY"><path class="cls-7" d="M224.56,173.59h0c-2-.66-3.32-2.3-2.87-3.66l19.9-61c.44-1.35,2.44-1.92,4.47-1.25h0c2,.66,3.32,2.3,2.88,3.65l-19.9,61C228.6,173.69,226.59,174.25,224.56,173.59Z"/><polygon class="cls-11" points="240.32 112.83 247.6 115.47 248.57 112.38 241.59 108.96 240.32 112.83"/><path class="cls-17" d="M227.56,96.19,266.67,109a2.22,2.22,0,0,1,1.42,2.79l-2,6a2.22,2.22,0,0,1-2.79,1.42L224.05,106.4a2.21,2.21,0,0,1-1.4-2.85l2.14-6A2.21,2.21,0,0,1,227.56,96.19Z"/><path class="cls-10" d="M266.67,109,227.56,96.19a2.21,2.21,0,0,0-2.77,1.36l-1.14,3.2a3.76,3.76,0,0,0,.86-.11c1.94-.49,2.33-3,3.21-2.73s-1,4.89.41,5.34,2.68-4,4.12-3.57.3,2.36,1.37,2.71,1-2,2-1.7-1.12,5,1.28,5.84,2.15-4.57,4.34-3.86.63,3.09,2.39,3.66,2.61-3.45,4.13-3-2.12,8.05.8,9,3.1-6.6,5.37-5.86-.43,4,1.61,4.62,1.46-3.39,3.17-2.83-.6,5,1.52,5.68,1.63-5.11,3.82-4.39-.81,3.71,1.06,4.32c1.23.4,2-1.45,3-2.54A2.21,2.21,0,0,0,266.67,109Z"/><path class="cls-16" d="M223.4,156.9s1.63-6.1,2.25-8.4a17.51,17.51,0,0,1,2.1-4.81c.76-1.3,2.25-6.41,3.17-5.92s.83,2.84.7,3.7a34,34,0,0,1-1.7,5.54c-.3.25,7.51-3.51,8.16-4.29a18,18,0,0,0,1.59-3s1.46,1.35,1.22,2.71a4.23,4.23,0,0,1-.62,1.81,3.74,3.74,0,0,1-.19,3.06,5.1,5.1,0,0,1-.52,3.23,10.24,10.24,0,0,1-1.18,3.54l-6.17,8.08S223.67,159.69,223.4,156.9Z"/><path class="cls-16" d="M82.56,295.91l-.65,2.33s2.09,3.18,1.57,6.11.48,7-.27,7.4-1.95-.27-1.95-.27,0,4.72-1.48,5a3,3,0,0,1-2.41-.54,3.55,3.55,0,0,1-2.7.86c-1.55-.21-2.13-2.16-2.13-2.16s-.9,1.3-2.56.11c0,0-2.09.65-3-1s-2.31-6.77-1.23-9.58c0,0,.84-8.7,3-11.74S82.59,294.61,82.56,295.91Z"/><path class="cls-18" d="M90,324.54h-.75v-3.79a15.65,15.65,0,0,0-31.3,0v3.79h-.74v-3.79a16.4,16.4,0,1,1,32.79,0Z"/><path class="cls-19" d="M90.08,323.88V356.4a7.53,7.53,0,0,1-7.53,7.53H64.69a7.53,7.53,0,0,1-7.53-7.53V323.88Z"/><ellipse class="cls-20" cx="73.62" cy="323.88" rx="16.46" ry="1.44"/><path class="cls-21" d="M90.08,323.88v3.21c-2.61,2-1.59,11.61-3.71,11.61-2.36,0-1-10.49-3.63-10.49s.8,6-2.11,6-2.2-6.15-3.8-6.15,0,13.58-2.61,13.58-.07-14.16-2.07-14.16-.38,5.68-2.85,5.68-1-5.48-3.6-5.48-.2,8.54-3,8.54-3-3-3.12-6.6a7.91,7.91,0,0,0-2.45-5.14v-.63Z"/><polygon class="cls-16" points="81.33 307.69 81.33 305.39 70.95 302.61 65.45 306.54 65.44 307.41 81.33 307.69"/><path class="cls-22" d="M81.33,306.29s-.1-2.35-1.69-2.49-1.87.55-1.87.55A4,4,0,0,0,75,303a2.21,2.21,0,0,0-2.3,1.16s-2.4-1.05-3.35,0c0,0-1.94-1.44-3.13.22A3.31,3.31,0,0,1,68.8,303c1.74,0,5.68-1.4,7.14-.72s5.37.21,5.67,1.7,0,8.08,1.73,7.66c0,0-1.25,1.43-2.08-.12C81.26,311.48,81.32,307.07,81.33,306.29Z"/><path class="cls-23" d="M143.74,188.68s8.43,0,23,.87,32.32,1.51,32.32,1.51,2.38-6.16,9.08-14.92S223.4,156.9,223.4,156.9s9.62,3.25,8.76,5.52-17.08,39.45-24.21,44.1-43,7.13-43,7.13,4.1,9.73,1.72,16.32-5.4,11.57-5.18,19.14S163.84,284,163.84,284s-15.56,5-29.94,3.89-29.51-.75-29.51-.75,6.16-28,5-32.54-4.1-18.38-4.1-18.38l-6.38,8.33s-.43,9.29-7.57,27.13-8.75,24.21-8.75,24.21-14.49,0-13.73-4S77,245.76,81.91,234.08s25.08-42.91,32.75-45.4S143.74,188.68,143.74,188.68Z"/><path class="cls-24" d="M103.12,215.18c.59,8.09,9.15,4.72,9.15,4.72.12,10,14.58,12.75,14.58,12.75-2.36-5.72,4.72-12,12.87-11.92s7.26-5.37,4.3-11.33.18-7.56,5.56-13.87c3.07-3.61,3.49-5,3-6.65-5.69-.2-8.8-.2-8.8-.2s-21.4-2.48-29.08,0c-4,1.31-11.54,10.58-18.46,20.76A32.05,32.05,0,0,0,103.12,215.18Z"/><path class="cls-24" d="M105.26,236.24,103,226.41a72.06,72.06,0,0,0-8,21.83c-2.16,12.11-12.43,47.67-12.43,47.67S105,247.16,105.26,236.24Z"/><path class="cls-24" d="M164.93,213.65h-4s7.66,8,5.8,16.1A22.32,22.32,0,0,0,164.93,213.65Z"/></g><g id="HEAD"><path class="cls-16" d="M160.28,147.9s2.1,33.65-2.27,36.73-17-1.78-17-1.78S133.15,147.9,160.28,147.9Z"/><path class="cls-22" d="M156.44,172.74c4.17-2.91,4.29-12.66,4.24-15.21-.14-5.5-.4-9.63-.4-9.63-27.13,0-19.3,34.95-19.3,34.95a47,47,0,0,0,11.76,2.77C151.21,182,151.9,175.9,156.44,172.74Z"/><path class="cls-14" d="M162.66,150s-.06,5.73-2.27,7.08,1.94,11.29-4.65,14.86-7.41,4.92-5.73,10.43,4.17,5.08-.75,10.87-7.79,7.24-5.09,12.7,3.51,10.48-3.94,10.37-13.95,5.68-11.79,10.92c0,0-13.24-2.48-13.35-11.67,0,0-7.83,3.08-8.37-4.33,0,0-14.47-8.36-9.79-19.74s11.48-4.1,10-12.47c-1.08-6.2,10.31-1.15,7.71-6.48s-3.53-12.33,4.18-21.48S161,139.26,162.66,150Z"/><path class="cls-15" d="M118.84,151.1a33.48,33.48,0,0,0-3.37,4.75c16.87,4.55,46.76-2.21,46.77-2.21a20,20,0,0,0,.42-3.6C161,139.26,126.55,142,118.84,151.1Z"/><path class="cls-25" d="M164.63,148.74h-1.47a2.17,2.17,0,0,0,0-.44,22.49,22.49,0,0,0-.19-2.85c-1.91-22-22.94-20.28-22.94-20.28-22.18,0-23.2,18.79-23.16,22.8,0,.11,0,.22,0,.33a1.64,1.64,0,0,0,0,.44h-1.68a2.1,2.1,0,0,0-2.14,2.07v0a2.1,2.1,0,0,0,2.14,2.08h49.39a2.12,2.12,0,0,0,2.13-2.08v0A2.11,2.11,0,0,0,164.63,148.74Z"/><path class="cls-26" d="M130.75,126.55C117.58,131,116.87,144.62,116.9,148c0,.11,0,.22,0,.33a1.64,1.64,0,0,0,0,.44h46.16C161.14,148.73,120,148.43,130.75,126.55Z"/></g></g><g id="UNDER_CONSTRUCTION" data-name="UNDER CONSTRUCTION"><path class="cls-27" d="M95.5,443.75h-42l3.91-13.68L61,417.46l3.29-11.53,3.61-12.61,4.58-16a2.06,2.06,0,0,1,4,0l4.57,16,3.61,12.61L88,417.46l3.61,12.61Z"/><path class="cls-28" d="M101.29,449.92H47.68c-1.44,0-2.61-1.49-2.62-3.33h0c0-1.86,1.17-3.38,2.62-3.38h53.61c1.46,0,2.64,1.52,2.63,3.38h0C103.91,448.43,102.74,449.92,101.29,449.92Z"/><polygon class="cls-29" points="84.68 405.93 64.29 405.93 67.9 393.32 81.07 393.32 84.68 405.93"/><polygon class="cls-29" points="91.59 430.07 57.39 430.07 61 417.46 87.98 417.46 91.59 430.07"/><rect class="cls-23" x="312.32" y="411" width="24.24" height="7.34"/><rect class="cls-23" x="318.4" y="331.62" width="10.95" height="135.6"/><rect class="cls-23" x="234.44" y="411" width="24.24" height="7.34"/><rect class="cls-23" x="240.53" y="331.62" width="10.95" height="135.6"/><rect class="cls-30" x="217.76" y="346.8" width="135.48" height="27.48" rx="2.95"/><path class="cls-2" d="M247.47,346.8l-20,27.48h-6.8a3,3,0,0,1-3-2.95v-1.82l16.49-22.71Z"/><polygon class="cls-2" points="274.45 346.8 254.49 374.28 241.28 374.28 261.24 346.8 274.45 346.8"/><polygon class="cls-2" points="301.42 346.8 281.46 374.28 268.26 374.28 288.22 346.8 301.42 346.8"/><polygon class="cls-2" points="328.4 346.8 308.44 374.28 295.24 374.28 315.2 346.8 328.4 346.8"/><path class="cls-2" d="M353.24,349.76h0l-17.82,24.52h-13.2l20-27.48h8.1A3,3,0,0,1,353.24,349.76Z"/><rect class="cls-31" x="217.76" y="386.09" width="135.48" height="27.48" rx="2.95"/><path class="cls-2" d="M247.47,386.09l-20,27.48h-6.8a3,3,0,0,1-3-2.95V408.8l16.49-22.71Z"/><polygon class="cls-2" points="274.45 386.1 254.49 413.57 241.28 413.57 261.24 386.1 274.45 386.1"/><polygon class="cls-2" points="301.42 386.1 281.46 413.57 268.26 413.57 288.22 386.1 301.42 386.1"/><polygon class="cls-2" points="328.4 386.1 308.44 413.57 295.24 413.57 315.2 386.1 328.4 386.1"/><path class="cls-2" d="M353.24,389.05h0l-17.82,24.52h-13.2l20-27.48h8.1A3,3,0,0,1,353.24,389.05Z"/><rect class="cls-23" x="242.61" y="360.21" width="85.78" height="38.71" rx="3.53"/><rect class="cls-32" x="246.41" y="363.46" width="78.17" height="32.2" rx="1.93"/><path class="cls-2" d="M277,374.46a2.07,2.07,0,0,1-2.31,2.14,2,2,0,0,1-2.31-2.14V370.4h1.29v4c0,.81.32,1.22,1,1.22s1-.41,1-1.22v-4H277Z"/><path class="cls-2" d="M282.8,376.46h-1.65l-1.93-4.81a17.74,17.74,0,0,1,.17,2.45v2.36h-1.16V370.4h1.62l2,4.81a15.32,15.32,0,0,1-.17-2.15V370.4h1.16Z"/><path class="cls-2" d="M288.79,373.4c0,2.45-1.49,3.06-3,3.06h-1.73V370.4h1.58C287.27,370.4,288.79,370.9,288.79,373.4Zm-3.42-2.06v4.17h.52c.89,0,1.56-.41,1.56-2.11s-.71-2.06-1.58-2.06Z"/><path class="cls-2" d="M293.25,371.34h-2.19v1.57H293v.93h-1.91v1.67h2.35v.95h-3.64V370.4h3.62Z"/><path class="cls-2" d="M296.34,374.09h-.66v2.37H294.4V370.4h1.89c1.62,0,2.44.59,2.44,1.81a1.66,1.66,0,0,1-1.2,1.64l1.57,2.61h-1.46Zm-.66-.92h.68c.67,0,1-.28,1-1s-.36-.89-1.14-.89h-.58Z"/><path class="cls-2" d="M259.7,381.42l-.63.75a1.72,1.72,0,0,0-1.11-.43c-.81,0-1.41.61-1.41,2.19s.58,2.16,1.42,2.16a1.91,1.91,0,0,0,1.21-.49l.59.75a2.58,2.58,0,0,1-1.85.76c-1.62,0-2.73-1.11-2.73-3.18s1.18-3.16,2.7-3.16A2.59,2.59,0,0,1,259.7,381.42Z"/><path class="cls-2" d="M265.41,383.94c0,2-1,3.17-2.69,3.17S260,386,260,383.94s1-3.17,2.7-3.17S265.41,381.91,265.41,383.94Zm-4,0c0,1.58.5,2.21,1.34,2.21s1.33-.63,1.33-2.21-.46-2.21-1.33-2.21S261.38,382.35,261.38,383.94Z"/><path class="cls-2" d="M271,387H269.3l-1.93-4.81a17.74,17.74,0,0,1,.17,2.45V387h-1.16v-6.06H268l2,4.82a15.64,15.64,0,0,1-.17-2.16v-2.66H271Z"/><path class="cls-2" d="M276.12,381.53l-.62.71a2,2,0,0,0-1.34-.51c-.52,0-.88.23-.88.66s.23.59,1.22.9,1.79.81,1.79,1.93-.87,1.89-2.34,1.89a3.11,3.11,0,0,1-2.25-.85l.66-.73a2.3,2.3,0,0,0,1.55.61c.62,0,1-.3,1-.83s-.23-.7-1.15-1c-1.32-.41-1.84-.93-1.84-1.85s.89-1.71,2.12-1.71A2.79,2.79,0,0,1,276.12,381.53Z"/><path class="cls-2" d="M280.87,381.92h-1.53V387h-1.29v-5.05h-1.61v-1H281Z"/><path class="cls-2" d="M283.62,384.6H283V387h-1.29v-6.06h1.89c1.62,0,2.45.59,2.45,1.81a1.67,1.67,0,0,1-1.2,1.64l1.56,2.61h-1.46Zm-.66-.92h.67c.68,0,1.05-.27,1.05-1s-.36-.89-1.14-.89H283Z"/><path class="cls-2" d="M291.51,385a2.07,2.07,0,0,1-2.32,2.14,2,2,0,0,1-2.3-2.14v-4.06h1.29v4c0,.82.31,1.22,1,1.22s1-.4,1-1.22v-4h1.29Z"/><path class="cls-2" d="M296.91,381.42l-.64.75a1.68,1.68,0,0,0-1.1-.43c-.82,0-1.41.61-1.41,2.19s.58,2.16,1.42,2.16a1.88,1.88,0,0,0,1.2-.49l.6.75a2.59,2.59,0,0,1-1.86.76c-1.62,0-2.72-1.11-2.72-3.18s1.17-3.16,2.7-3.16A2.6,2.6,0,0,1,296.91,381.42Z"/><path class="cls-2" d="M301.5,381.92H300V387h-1.29v-5.05h-1.61v-1h4.57Z"/><path class="cls-2" d="M303.58,387H302.3v-6.06h1.28Z"/><path class="cls-2" d="M310,383.94c0,2-1,3.17-2.69,3.17s-2.69-1.15-2.69-3.17,1-3.17,2.69-3.17S310,381.91,310,383.94Zm-4,0c0,1.58.5,2.21,1.34,2.21s1.33-.63,1.33-2.21-.46-2.21-1.33-2.21S305.92,382.35,305.92,383.94Z"/><path class="cls-2" d="M315.5,387h-1.66l-1.93-4.81a17.39,17.39,0,0,1,.18,2.45V387h-1.17v-6.06h1.62l2,4.82a15.31,15.31,0,0,1-.18-2.16v-2.66h1.17Z"/></g><g id="SITE"><path class="cls-33" d="M539.54,237.31a8.9,8.9,0,0,0,0-1.15l-6.84-60a7.94,7.94,0,0,0-9-7L352.21,192.87a8,8,0,0,0-6.79,8.9l1.25,9.53,187-25.86Z"/><path class="cls-34" d="M361.85,266.39,532.6,244.94a7.93,7.93,0,0,0,6.94-7.63l-5.91-51.87-187,25.86L353,259.54A7.94,7.94,0,0,0,361.85,266.39Z"/><circle class="cls-2" cx="381.48" cy="235.71" r="19.69"/><line class="cls-35" x1="411.54" y1="217.81" x2="523.88" y2="202.17"/><line class="cls-35" x1="412.65" y1="225.62" x2="524.99" y2="209.99"/><line class="cls-35" x1="413.76" y1="233.44" x2="526.1" y2="217.81"/><line class="cls-35" x1="414.86" y1="241.26" x2="527.21" y2="225.62"/></g><g id="MAN"><g id="SHOES"><path class="cls-14" d="M588.6,457.05l-.33,8.54s2.63,15,1.91,16.09-28.57,2.37-36.58,1.8a1.52,1.52,0,0,1-1.38-1.77c.3-1.84,1.14-4.78,3.52-6.24,3.6-2.22,17.58-9.69,18.88-11l-.08-7.4Z"/><path class="cls-36" d="M574.62,464.45a6.74,6.74,0,0,1,3.1-1c1.18.14,3.38,1.4,2.95,2.77s7.6-.67,7.6-.67l.33-8.54H574.54Z"/><path class="cls-9" d="M552.22,481.71a1.52,1.52,0,0,0,1.38,1.77c8,.57,35.92-.78,36.58-1.8a7.72,7.72,0,0,0,0-2.78c-10.28,1.83-26.74,1.28-26.74,1.28.75-6.16-3.69-7.05-3.69-7.05-1.73,1-3.18,1.81-4,2.34C553.36,476.93,552.52,479.87,552.22,481.71Z"/><path class="cls-14" d="M533.69,453.11l-1.09,8.38s1.84,13.25,1.52,14.47-24.59,4.16-28.16,4.28-7.35-.67-7.41-1.11.71-6.71,3.57-7.66,16.7-8.59,17-9,1.18-9.47,1.18-9.47Z"/><path class="cls-36" d="M519.09,462.43s4.56-1,5.86,0-.18,1.94,2,1.44a29.53,29.53,0,0,0,5.65-2.38l1.09-8.38L520.27,453l-1.18,9.75"/><path class="cls-9" d="M498.55,479.13c.06.44,3.84,1.22,7.41,1.11s27.83-3.06,28.16-4.28a8.55,8.55,0,0,0,0-1.77c-10,1.35-27,3.49-27,3.49,1.23-5-2.13-7.47-2.13-7.47h0a26.45,26.45,0,0,1-2.84,1.26C499.26,472.42,498.5,478.68,498.55,479.13Z"/></g><g id="PANTS"><path class="cls-14" d="M596,282.68s5.94,25,0,39.93c0,0-5.19,46.7-4.22,52.69s5,12.76,2.27,35.83-5.4,45.92-5.4,45.92-11.46,2.33-14.49,0c0,0-7-71.14-7.42-78.83s-4.61-50.13-4.61-50.13-14.27,30-15.14,36.23,1.73,22-2.45,36.09-10.8,52.7-10.8,52.7-9.66,2.23-13.7-.32c0,0-2-81.07,1.59-99.12s18.59-76.61,18.59-76.61S589.17,266,596,282.68Z"/><path class="cls-37" d="M562.08,328.09l-1-21.3s-12.83,37.84-14,56.78C547.09,363.57,558.17,335.18,562.08,328.09Z"/></g><g id="BODY-2" data-name="BODY"><path class="cls-36" d="M509.76,246s-4.88-.81-7.1-.43-10.37.32-11,.43-.86,1.73-.54,2.16a16.9,16.9,0,0,0,2.65,1.68l-12.38,1.62s11,4.27,14.92,4.59,14.14-.72,14.14-.72S511.55,247.1,509.76,246Z"/><path class="cls-23" d="M571.73,173.1s20,13.9,22.16,22.55.47,74.55,2.06,79a10.86,10.86,0,0,1,0,7.79s-20.61,3.17-33.3,1.87A58.87,58.87,0,0,1,540.17,277l-1.3-20.47-28.39-1.15s-1.76-8.25-.4-10.09l28.9-8.11-3.63-37.39,15.42-17Z"/><path class="cls-24" d="M538.87,256.5s19.14-.65,23.78-3.67,23.89-47.89,23.89-47.89-12.1,47.24-16.43,52.43-30.47,11.24-30.47,11.24Z"/><path class="cls-24" d="M562.71,202.89,549.14,234.4,539,237.15l-3.63-37.39,15.42-17s-14.06,28.45-8.87,32S562.71,202.89,562.71,202.89Z"/></g><g id="HEAD-2" data-name="HEAD"><path class="cls-36" d="M529.65,141.5s1.85,37.17,10.64,34.55c6.42-1.91,8.68-4.34,8.68-4.34l1.8,11s-.57,8,3.77,5.65,17.19-15.31,17.19-15.31l-8.35-16s.49-17.35-6.06-18.17S529.65,141.5,529.65,141.5Z"/><path class="cls-38" d="M541.44,140s.25,5.9,4.38,6.76c0,0,2.62,6.67,4,6.43s1.72-7,1.72-7,3.23-5.85,7.33-1.64c2.58,2.65-1.68,10.19-2.83,9.87s5,3.19,7.33,2.57,6.92-17.76,5.45-21.2S543,129,541.44,140Z"/><path class="cls-39" d="M567.83,146.39c1.08-4.45,1.68-9,1-10.54-1.47-3.42-25.48-6.83-27.35,4-6.29.77-11.83,1.67-11.83,1.67s.05,1.13.18,3C529.85,144.46,552.33,148.19,567.83,146.39Z"/><path class="cls-40" d="M525.84,139.17l1.41-.06a1.4,1.4,0,0,1-.06-.41,21,21,0,0,1,.08-2.75c1-21.17,21.1-20.38,21.1-20.38,21.16-.86,22.86,17.16,23,21,0,.11,0,.21,0,.32a1.41,1.41,0,0,1,0,.41l1.61-.06a2,2,0,0,1,2.12,1.91v0a2,2,0,0,1-2,2.08l-2,.08-43.29,1.76-1.81.07a2,2,0,0,1-2.12-1.91v0A2,2,0,0,1,525.84,139.17Z"/><path class="cls-26" d="M557.3,116.54c12.74,3.72,14,16.82,14.05,20,0,.11,0,.21,0,.32a1.41,1.41,0,0,1,0,.41l-44,1.79C529.17,139,568.45,137.15,557.3,116.54Z"/><polygon class="cls-22" points="548.97 171.71 551.63 169.49 549.74 176.4 548.97 171.71"/></g></g><g id="GRASS"><g id="plant_3" data-name="plant 3"><path class="cls-41" d="M633.24,456.09s-1.23-43.37-16.17-46.58-17.08,27,0,56.93Z"/><path class="cls-42" d="M625.52,461.29a.26.26,0,0,1-.25-.2c-7.13-29.26-10.19-40-10.22-40.12a.25.25,0,1,1,.48-.14c0,.1,3.1,10.87,10.23,40.14a.26.26,0,0,1-.19.31Z"/><path class="cls-43" d="M638.42,466.44s22.77-22.06,14.23-32.73-29.89,7.83-35.58,32.73Z"/><path class="cls-42" d="M629.52,463.49a.18.18,0,0,1-.1,0,.25.25,0,0,1-.13-.33c5.65-13.06,16.67-23.46,16.78-23.57a.26.26,0,0,1,.36,0,.25.25,0,0,1,0,.36c-.11.1-11.06,10.44-16.67,23.4A.24.24,0,0,1,629.52,463.49Z"/><path class="cls-44" d="M619.14,466.44s-5.81-25.08-17.55-22.95,0,22.77,0,22.77Z"/><path class="cls-42" d="M607.64,463.31a.25.25,0,0,1-.24-.18l-3.92-14.59a.26.26,0,0,1,.18-.31.25.25,0,0,1,.31.18L607.88,463a.25.25,0,0,1-.17.31Z"/></g><g id="plant_3-2" data-name="plant 3"><path class="cls-45" d="M454,437.47s-.86-30.29-11.3-32.53-11.93,18.89,0,39.77Z"/><path class="cls-42" d="M448.56,441.11a.18.18,0,0,1-.17-.14c-5-20.44-7.12-28-7.14-28a.18.18,0,0,1,.12-.22.19.19,0,0,1,.22.12c0,.08,2.16,7.6,7.14,28.05a.17.17,0,0,1-.13.21Z"/><path class="cls-46" d="M457.58,444.71s15.9-15.41,9.94-22.87-20.88,5.47-24.86,22.87Z"/><path class="cls-42" d="M451.36,442.65l-.07,0a.17.17,0,0,1-.09-.23c3.94-9.12,11.65-16.39,11.72-16.46a.18.18,0,0,1,.25,0,.17.17,0,0,1,0,.25c-.07.07-7.72,7.29-11.64,16.34A.17.17,0,0,1,451.36,442.65Z"/><path class="cls-47" d="M444.11,444.71s-4.06-17.52-12.26-16,0,15.91,0,15.91Z"/><path class="cls-42" d="M436.07,442.53a.19.19,0,0,1-.17-.14l-2.73-10.19a.17.17,0,0,1,.12-.21.18.18,0,0,1,.22.12l2.73,10.19a.18.18,0,0,1-.12.22Z"/></g></g></g></g></g></svg>